<svg width="64" height="64" viewBox="0 0 64 64" fill="none" xmlns="http://www.w3.org/2000/svg">
  <rect width="64" height="64" rx="18" fill="#0C0C0C"/>
  <rect x="4" y="4" width="56" height="56" rx="15" stroke="#D7E2EA" stroke-opacity="0.34" stroke-width="2"/>
  <path d="M20 18H36V24H27V29H35V35H27V41H37V47H20V18Z" fill="url(#paint0_linear)"/>
  <path d="M38 18H50C55 18 58 21.3 58 26.5C58 30.4 55.9 33.1 52.4 34.2L59 47H51L45.8 36H45V47H38V18ZM45 24V30.8H49.2C51.1 30.8 52 29.7 52 27.4C52 25.2 50.9 24 49 24H45Z" fill="url(#paint0_linear)"/>
  <path d="M12 18H18L11 47H5L12 18Z" fill="#BBCCD7"/>
  <circle cx="51" cy="14" r="4" fill="#D7E2EA" fill-opacity="0.22"/>
  <defs>
    <linearGradient id="paint0_linear" x1="33" y1="18" x2="33" y2="47" gradientUnits="userSpaceOnUse">
      <stop stop-color="#F4F8FB"/>
      <stop offset="1" stop-color="#8EA0AE"/>
    </linearGradient>
  </defs>
</svg>
